<mxfile host="Electron" agent="Mozilla/5.0 (Windows NT 10.0; Win64; x64) AppleWebKit/537.36 (KHTML, like Gecko) draw.io/27.0.9 Chrome/134.0.6998.205 Electron/35.4.0 Safari/537.36" version="27.0.9">
  <diagram name="Página-1" id="P1nFhNrorvd1HE1Whm4y">
    <mxGraphModel dx="6029" dy="2163" grid="1" gridSize="10" guides="1" tooltips="1" connect="1" arrows="1" fold="1" page="1" pageScale="1" pageWidth="1169" pageHeight="827" math="0" shadow="0">
      <root>
        <mxCell id="0" />
        <mxCell id="1" parent="0" />
        <mxCell id="X8cFLP20oULLbtPgR9av-6" value="Paciente" style="shape=umlActor;verticalLabelPosition=bottom;verticalAlign=top;html=1;outlineConnect=0;strokeWidth=3;fontSize=25;" vertex="1" parent="1">
          <mxGeometry x="-1731" y="-650" width="40" height="80" as="geometry" />
        </mxCell>
        <mxCell id="X8cFLP20oULLbtPgR9av-7" value="Personal administrativo" style="shape=umlActor;verticalLabelPosition=bottom;verticalAlign=top;html=1;outlineConnect=0;strokeWidth=3;fontSize=25;" vertex="1" parent="1">
          <mxGeometry x="-1731" y="-523" width="40" height="80" as="geometry" />
        </mxCell>
        <mxCell id="X8cFLP20oULLbtPgR9av-8" value="&lt;div style=&quot;text-align: start; background-color: rgb(255, 255, 255); font-family: docs-Roboto, Helvetica, Arial, sans-serif;&quot;&gt;&lt;div style=&quot;color: rgb(32, 33, 36); background-color: rgb(255, 255, 255);&quot;&gt;Se debe confeccionar un Diagrama UML de Casos de Uso correspondiente al siguiente escenario:&lt;/div&gt;&lt;div style=&quot;color: rgb(32, 33, 36); background-color: rgb(255, 255, 255);&quot;&gt;&lt;br&gt;&lt;/div&gt;&lt;div style=&quot;background-color: rgb(255, 255, 255);&quot;&gt;&lt;p style=&quot;color: rgb(32, 33, 36); margin: 0px;&quot;&gt;La guardia médica de un hospital desea mejorar la eficiencia en la atención de pacientes mediante la implementación de un sistema de gestión digital.&lt;/p&gt;&lt;p style=&quot;margin-bottom: 0px;&quot;&gt;&lt;font color=&quot;#202124&quot;&gt;Cuando un &lt;/font&gt;&lt;b style=&quot;color: rgb(32, 33, 36);&quot;&gt;paciente &lt;/b&gt;&lt;font color=&quot;#202124&quot;&gt;llega a la guardia, debe &lt;/font&gt;&lt;b&gt;&lt;font style=&quot;color: rgb(0, 0, 255);&quot;&gt;presentarse en la recepción&lt;/font&gt;&lt;/b&gt;&lt;font color=&quot;#202124&quot;&gt;, donde el &lt;/font&gt;&lt;b style=&quot;color: rgb(32, 33, 36);&quot;&gt;personal administrativo&lt;/b&gt;&lt;font&gt; &lt;b&gt;&lt;font style=&quot;color: rgb(0, 0, 255);&quot;&gt;registra sus datos personales y el motivo de la consulta&lt;/font&gt;&lt;/b&gt;&lt;font color=&quot;#202124&quot;&gt;. El &lt;/font&gt;&lt;/font&gt;&lt;b style=&quot;color: rgb(32, 33, 36);&quot;&gt;sistema &lt;/b&gt;&lt;font&gt;&lt;font color=&quot;#202124&quot;&gt;debe permitir &lt;/font&gt;&lt;b&gt;&lt;font style=&quot;color: rgb(0, 0, 255);&quot;&gt;verificar si el paciente ya está registrado&lt;/font&gt;&lt;/b&gt;&lt;font&gt;&lt;font color=&quot;#202124&quot;&gt; y, en caso contrario, &lt;/font&gt;&lt;b&gt;&lt;font style=&quot;color: rgb(0, 0, 255);&quot;&gt;darlo de alta en la base de datos&lt;/font&gt;&lt;/b&gt;&lt;font color=&quot;#202124&quot;&gt;.&lt;/font&gt;&lt;/font&gt;&lt;/font&gt;&lt;/p&gt;&lt;p style=&quot;margin-bottom: 0px;&quot;&gt;&lt;font color=&quot;#202124&quot;&gt;Una vez registrado, el &lt;/font&gt;&lt;b style=&quot;color: rgb(32, 33, 36);&quot;&gt;paciente &lt;/b&gt;&lt;font color=&quot;#202124&quot;&gt;queda en espera hasta ser llamado por un &lt;/font&gt;&lt;b style=&quot;color: rgb(32, 33, 36);&quot;&gt;médico&lt;/b&gt;&lt;font color=&quot;#202124&quot;&gt;. El &lt;/font&gt;&lt;b style=&quot;color: rgb(32, 33, 36);&quot;&gt;sistema &lt;/b&gt;&lt;font color=&quot;#202124&quot;&gt;debe &lt;/font&gt;&lt;b&gt;&lt;font style=&quot;color: rgb(0, 0, 255);&quot;&gt;asignar &lt;/font&gt;&lt;/b&gt;&lt;font color=&quot;#202124&quot;&gt;al paciente al &lt;/font&gt;&lt;b style=&quot;color: rgb(32, 33, 36);&quot;&gt;médico &lt;/b&gt;&lt;font color=&quot;#202124&quot;&gt;disponible según la especialidad requerida.&lt;br&gt;&lt;/font&gt;&lt;br&gt;&lt;font color=&quot;#202124&quot;&gt;El &lt;/font&gt;&lt;b style=&quot;color: rgb(32, 33, 36);&quot;&gt;médico&lt;/b&gt;&lt;font&gt;&lt;font color=&quot;#202124&quot;&gt;, al iniciar la consulta, debe poder &lt;/font&gt;&lt;b&gt;&lt;font style=&quot;color: light-dark(rgb(0, 0, 255), rgb(208, 209, 212));&quot;&gt;consultar la historia clínica&lt;/font&gt;&lt;/b&gt;&lt;font color=&quot;#202124&quot;&gt; del paciente en caso de existir, luego r&lt;/font&gt;&lt;b&gt;&lt;font style=&quot;color: rgb(0, 0, 255);&quot;&gt;egistrar el diagnóstico e indicar tratamiento&lt;/font&gt;&lt;/b&gt;&lt;font color=&quot;#202124&quot;&gt;. Además, de ser necesario debe&lt;b&gt; &lt;/b&gt;&lt;/font&gt;&lt;font style=&quot;color: rgb(0, 0, 255);&quot;&gt;&lt;b&gt;recetar medicamentos y solicitar estudios complementarios&lt;/b&gt;&lt;/font&gt;&lt;font color=&quot;#202124&quot;&gt; (análisis, radiografías, etc.).&lt;/font&gt;&lt;/font&gt;&lt;/p&gt;&lt;p style=&quot;margin-bottom: 0px;&quot;&gt;&lt;font color=&quot;#202124&quot;&gt;En caso de que el &lt;/font&gt;&lt;b style=&quot;color: rgb(32, 33, 36);&quot;&gt;médico &lt;/b&gt;&lt;font color=&quot;#202124&quot;&gt;determine que el paciente debe ser internado, el &lt;/font&gt;&lt;b style=&quot;color: rgb(32, 33, 36);&quot;&gt;sistema &lt;/b&gt;&lt;font color=&quot;#202124&quot;&gt;debe permitir &lt;/font&gt;&lt;b&gt;&lt;font style=&quot;color: rgb(0, 0, 255);&quot;&gt;generar la orden de internación.&lt;/font&gt;&lt;/b&gt;&lt;font&gt;&lt;font color=&quot;#202124&quot;&gt; También debe poder &lt;/font&gt;&lt;b&gt;&lt;font style=&quot;color: rgb(0, 0, 255);&quot;&gt;registrarse si el paciente es derivado a otro centro de salud&lt;/font&gt;&lt;/b&gt;&lt;font color=&quot;#202124&quot;&gt;.&lt;/font&gt;&lt;/font&gt;&lt;/p&gt;&lt;p style=&quot;margin-bottom: 0px;&quot;&gt;&lt;font color=&quot;#202124&quot;&gt;El &lt;/font&gt;&lt;b style=&quot;color: rgb(32, 33, 36);&quot;&gt;sistema&lt;/b&gt;&lt;font color=&quot;#202124&quot;&gt; debe permitir que los &lt;/font&gt;&lt;b style=&quot;color: rgb(32, 33, 36);&quot;&gt;jefes de guardia&lt;/b&gt; &lt;font style=&quot;color: rgb(0, 0, 255);&quot;&gt;&lt;font&gt;&lt;b&gt;consulten estadísticas de atención&lt;/b&gt;&lt;/font&gt;&lt;font&gt; &lt;/font&gt;&lt;/font&gt;&lt;font color=&quot;#202124&quot;&gt;(cantidad de pacientes atendidos, especialidades más requeridas, tiempos de espera promedio, entre otros).&lt;/font&gt;&lt;/p&gt;&lt;/div&gt;&lt;/div&gt;" style="whiteSpace=wrap;html=1;fontStyle=0;fontSize=23;fillColor=none;" vertex="1" parent="1">
          <mxGeometry x="-2370" y="-680" width="490" height="1140" as="geometry" />
        </mxCell>
        <mxCell id="X8cFLP20oULLbtPgR9av-9" value="Médico" style="shape=umlActor;verticalLabelPosition=bottom;verticalAlign=top;html=1;outlineConnect=0;strokeWidth=3;fontSize=25;" vertex="1" parent="1">
          <mxGeometry x="-1780" y="-300" width="40" height="80" as="geometry" />
        </mxCell>
        <mxCell id="X8cFLP20oULLbtPgR9av-10" value="&lt;b&gt;GUARDIA MÉDICA&lt;/b&gt;" style="text;html=1;align=center;verticalAlign=middle;resizable=0;points=[];autosize=1;strokeColor=none;fillColor=none;fontSize=30;" vertex="1" parent="1">
          <mxGeometry x="-1491" y="-682.5" width="290" height="50" as="geometry" />
        </mxCell>
        <mxCell id="X8cFLP20oULLbtPgR9av-11" value="Actores:&lt;br&gt;Paciente&lt;br&gt;Medico&lt;br&gt;Personal administrativo&lt;br&gt;Jefe de guardia" style="text;html=1;align=left;verticalAlign=middle;resizable=0;points=[];autosize=1;strokeColor=none;fillColor=none;fontSize=30;" vertex="1" parent="1">
          <mxGeometry x="-2295" y="470" width="340" height="190" as="geometry" />
        </mxCell>
        <mxCell id="X8cFLP20oULLbtPgR9av-12" value="Jefe de guardia" style="shape=umlActor;verticalLabelPosition=bottom;verticalAlign=top;html=1;outlineConnect=0;strokeWidth=3;fontSize=25;" vertex="1" parent="1">
          <mxGeometry x="-1767.5" y="365" width="40" height="80" as="geometry" />
        </mxCell>
        <mxCell id="X8cFLP20oULLbtPgR9av-15" style="edgeStyle=orthogonalEdgeStyle;rounded=0;orthogonalLoop=1;jettySize=auto;html=1;entryX=0;entryY=0.5;entryDx=0;entryDy=0;strokeWidth=3;endArrow=none;startFill=0;" edge="1" parent="1" target="X8cFLP20oULLbtPgR9av-13">
          <mxGeometry relative="1" as="geometry">
            <mxPoint x="-1687.5" y="410.1282051282051" as="targetPoint" />
            <mxPoint x="-1717.5" y="420" as="sourcePoint" />
            <Array as="points">
              <mxPoint x="-1717.5" y="420" />
            </Array>
          </mxGeometry>
        </mxCell>
        <mxCell id="X8cFLP20oULLbtPgR9av-13" value="Consultar estadisticas de atencion" style="ellipse;whiteSpace=wrap;html=1;fontSize=25;" vertex="1" parent="1">
          <mxGeometry x="-1547.5" y="365" width="240" height="110" as="geometry" />
        </mxCell>
        <mxCell id="X8cFLP20oULLbtPgR9av-17" style="edgeStyle=orthogonalEdgeStyle;rounded=0;orthogonalLoop=1;jettySize=auto;html=1;exitX=0.5;exitY=0;exitDx=0;exitDy=0;entryX=0;entryY=1;entryDx=0;entryDy=0;strokeWidth=3;endArrow=blockThin;endFill=0;endSize=21;" edge="1" parent="1" source="X8cFLP20oULLbtPgR9av-16" target="X8cFLP20oULLbtPgR9av-13">
          <mxGeometry relative="1" as="geometry" />
        </mxCell>
        <mxCell id="X8cFLP20oULLbtPgR9av-16" value="cantidad de pacientes atentidos" style="ellipse;whiteSpace=wrap;html=1;fontSize=25;" vertex="1" parent="1">
          <mxGeometry x="-1706.5" y="534" width="180" height="110" as="geometry" />
        </mxCell>
        <mxCell id="X8cFLP20oULLbtPgR9av-18" value="especialidades mas requeridas" style="ellipse;whiteSpace=wrap;html=1;fontSize=25;" vertex="1" parent="1">
          <mxGeometry x="-1517.5" y="538" width="200" height="110" as="geometry" />
        </mxCell>
        <mxCell id="X8cFLP20oULLbtPgR9av-19" style="edgeStyle=orthogonalEdgeStyle;rounded=0;orthogonalLoop=1;jettySize=auto;html=1;exitX=0.5;exitY=0;exitDx=0;exitDy=0;entryX=0.539;entryY=1.002;entryDx=0;entryDy=0;entryPerimeter=0;strokeWidth=3;endArrow=blockThin;endFill=0;endSize=21;" edge="1" parent="1" source="X8cFLP20oULLbtPgR9av-18" target="X8cFLP20oULLbtPgR9av-13">
          <mxGeometry relative="1" as="geometry" />
        </mxCell>
        <mxCell id="X8cFLP20oULLbtPgR9av-20" value="tiempos de espera promedio" style="ellipse;whiteSpace=wrap;html=1;fontSize=25;" vertex="1" parent="1">
          <mxGeometry x="-1307.5" y="531" width="170" height="130" as="geometry" />
        </mxCell>
        <mxCell id="X8cFLP20oULLbtPgR9av-21" style="edgeStyle=orthogonalEdgeStyle;rounded=0;orthogonalLoop=1;jettySize=auto;html=1;exitX=0.5;exitY=0;exitDx=0;exitDy=0;entryX=0.923;entryY=0.776;entryDx=0;entryDy=0;entryPerimeter=0;strokeWidth=3;endArrow=blockThin;endFill=0;endSize=21;" edge="1" parent="1" source="X8cFLP20oULLbtPgR9av-20" target="X8cFLP20oULLbtPgR9av-13">
          <mxGeometry relative="1" as="geometry" />
        </mxCell>
        <mxCell id="X8cFLP20oULLbtPgR9av-62" style="edgeStyle=orthogonalEdgeStyle;rounded=0;orthogonalLoop=1;jettySize=auto;html=1;exitX=1;exitY=1;exitDx=0;exitDy=0;entryX=0.5;entryY=0;entryDx=0;entryDy=0;endArrow=none;startFill=0;strokeWidth=4;" edge="1" parent="1" source="X8cFLP20oULLbtPgR9av-22" target="X8cFLP20oULLbtPgR9av-47">
          <mxGeometry relative="1" as="geometry">
            <Array as="points">
              <mxPoint x="-1415" y="-568" />
              <mxPoint x="-1411" y="-568" />
              <mxPoint x="-1411" y="-533" />
            </Array>
          </mxGeometry>
        </mxCell>
        <mxCell id="X8cFLP20oULLbtPgR9av-63" value="&lt;span&gt;&amp;lt;&amp;lt;include&amp;gt;&amp;gt;&lt;/span&gt;" style="edgeLabel;html=1;align=center;verticalAlign=middle;resizable=0;points=[];fontSize=16;" vertex="1" connectable="0" parent="X8cFLP20oULLbtPgR9av-62">
          <mxGeometry x="-0.106" y="-1" relative="1" as="geometry">
            <mxPoint x="-5" y="-8" as="offset" />
          </mxGeometry>
        </mxCell>
        <mxCell id="X8cFLP20oULLbtPgR9av-22" value="se presenta" style="ellipse;whiteSpace=wrap;html=1;fontSize=25;" vertex="1" parent="1">
          <mxGeometry x="-1610" y="-632.5" width="140" height="62.5" as="geometry" />
        </mxCell>
        <mxCell id="X8cFLP20oULLbtPgR9av-23" style="edgeStyle=orthogonalEdgeStyle;rounded=0;orthogonalLoop=1;jettySize=auto;html=1;entryX=0;entryY=0.5;entryDx=0;entryDy=0;strokeWidth=3;endArrow=none;startFill=0;" edge="1" parent="1" target="X8cFLP20oULLbtPgR9av-22">
          <mxGeometry relative="1" as="geometry">
            <mxPoint x="-1511" y="-633.75" as="targetPoint" />
            <mxPoint x="-1690" y="-600" as="sourcePoint" />
            <Array as="points">
              <mxPoint x="-1681" y="-600" />
              <mxPoint x="-1645" y="-600" />
              <mxPoint x="-1645" y="-569" />
            </Array>
          </mxGeometry>
        </mxCell>
        <mxCell id="X8cFLP20oULLbtPgR9av-24" style="edgeStyle=orthogonalEdgeStyle;rounded=0;orthogonalLoop=1;jettySize=auto;html=1;strokeWidth=3;endArrow=none;startFill=0;entryX=0;entryY=0.5;entryDx=0;entryDy=0;" edge="1" parent="1" target="X8cFLP20oULLbtPgR9av-47">
          <mxGeometry relative="1" as="geometry">
            <mxPoint x="-1471" y="-475" as="targetPoint" />
            <mxPoint x="-1651" y="-473.75" as="sourcePoint" />
            <Array as="points">
              <mxPoint x="-1555" y="-474" />
            </Array>
          </mxGeometry>
        </mxCell>
        <mxCell id="X8cFLP20oULLbtPgR9av-26" value="Consultar historia clínica" style="ellipse;whiteSpace=wrap;html=1;fontSize=25;" vertex="1" parent="1">
          <mxGeometry x="-1630.01" y="-380" width="149" height="120" as="geometry" />
        </mxCell>
        <mxCell id="X8cFLP20oULLbtPgR9av-27" value="registrar diagnostico" style="ellipse;whiteSpace=wrap;html=1;fontSize=25;" vertex="1" parent="1">
          <mxGeometry x="-1365" y="-280" width="149" height="90" as="geometry" />
        </mxCell>
        <mxCell id="X8cFLP20oULLbtPgR9av-28" value="indicar tratamiento" style="ellipse;whiteSpace=wrap;html=1;fontSize=25;" vertex="1" parent="1">
          <mxGeometry x="-1370" y="-180" width="149" height="90" as="geometry" />
        </mxCell>
        <mxCell id="X8cFLP20oULLbtPgR9av-31" value="recetar medicamentos" style="ellipse;whiteSpace=wrap;html=1;fontSize=25;" vertex="1" parent="1">
          <mxGeometry x="-1662.1299999999999" y="-150" width="213.25" height="80" as="geometry" />
        </mxCell>
        <mxCell id="X8cFLP20oULLbtPgR9av-32" value="solicitar estudios complementarios" style="ellipse;whiteSpace=wrap;html=1;fontSize=25;" vertex="1" parent="1">
          <mxGeometry x="-1676.6200000000001" y="-60" width="242.26" height="100" as="geometry" />
        </mxCell>
        <mxCell id="X8cFLP20oULLbtPgR9av-33" style="edgeStyle=orthogonalEdgeStyle;rounded=0;orthogonalLoop=1;jettySize=auto;html=1;exitX=0.5;exitY=0;exitDx=0;exitDy=0;entryX=0.213;entryY=0.917;entryDx=0;entryDy=0;entryPerimeter=0;strokeWidth=3;endArrow=blockThin;endFill=0;endSize=21;" edge="1" parent="1" source="X8cFLP20oULLbtPgR9av-34" target="X8cFLP20oULLbtPgR9av-32">
          <mxGeometry relative="1" as="geometry">
            <mxPoint x="-1624.75" y="210" as="sourcePoint" />
            <mxPoint x="-1625.75" y="110" as="targetPoint" />
          </mxGeometry>
        </mxCell>
        <mxCell id="X8cFLP20oULLbtPgR9av-34" value="analisis" style="ellipse;whiteSpace=wrap;html=1;fontSize=25;" vertex="1" parent="1">
          <mxGeometry x="-1676.62" y="70" width="110" height="45" as="geometry" />
        </mxCell>
        <mxCell id="X8cFLP20oULLbtPgR9av-35" value="radiografias" style="ellipse;whiteSpace=wrap;html=1;fontSize=25;" vertex="1" parent="1">
          <mxGeometry x="-1554.62" y="70" width="165" height="50" as="geometry" />
        </mxCell>
        <mxCell id="X8cFLP20oULLbtPgR9av-36" style="edgeStyle=orthogonalEdgeStyle;rounded=0;orthogonalLoop=1;jettySize=auto;html=1;exitX=0.5;exitY=0;exitDx=0;exitDy=0;entryX=0.841;entryY=0.88;entryDx=0;entryDy=0;entryPerimeter=0;strokeWidth=3;endArrow=blockThin;endFill=0;endSize=21;" edge="1" parent="1" source="X8cFLP20oULLbtPgR9av-35" target="X8cFLP20oULLbtPgR9av-32">
          <mxGeometry relative="1" as="geometry">
            <mxPoint x="-1500" y="173" as="sourcePoint" />
            <mxPoint x="-1500" y="110" as="targetPoint" />
          </mxGeometry>
        </mxCell>
        <mxCell id="X8cFLP20oULLbtPgR9av-37" style="edgeStyle=orthogonalEdgeStyle;rounded=0;orthogonalLoop=1;jettySize=auto;html=1;strokeWidth=3;endArrow=none;startFill=0;entryX=0;entryY=0.442;entryDx=0;entryDy=0;entryPerimeter=0;" edge="1" parent="1" target="X8cFLP20oULLbtPgR9av-26">
          <mxGeometry relative="1" as="geometry">
            <mxPoint x="-1630" y="-250" as="targetPoint" />
            <mxPoint x="-1720" y="-270" as="sourcePoint" />
            <Array as="points">
              <mxPoint x="-1680" y="-270" />
              <mxPoint x="-1680" y="-327" />
            </Array>
          </mxGeometry>
        </mxCell>
        <mxCell id="X8cFLP20oULLbtPgR9av-39" style="edgeStyle=orthogonalEdgeStyle;rounded=0;orthogonalLoop=1;jettySize=auto;html=1;strokeWidth=3;endArrow=none;startFill=0;entryX=0.031;entryY=0.33;entryDx=0;entryDy=0;entryPerimeter=0;" edge="1" parent="1" target="X8cFLP20oULLbtPgR9av-27">
          <mxGeometry relative="1" as="geometry">
            <mxPoint x="-1629.99" y="-250" as="targetPoint" />
            <mxPoint x="-1719.99" y="-250" as="sourcePoint" />
            <Array as="points" />
          </mxGeometry>
        </mxCell>
        <mxCell id="X8cFLP20oULLbtPgR9av-40" style="edgeStyle=orthogonalEdgeStyle;rounded=0;orthogonalLoop=1;jettySize=auto;html=1;strokeWidth=3;endArrow=none;startFill=0;entryX=0.049;entryY=0.293;entryDx=0;entryDy=0;entryPerimeter=0;" edge="1" parent="1" target="X8cFLP20oULLbtPgR9av-28">
          <mxGeometry relative="1" as="geometry">
            <mxPoint x="-1630" y="-250" as="targetPoint" />
            <mxPoint x="-1720" y="-240" as="sourcePoint" />
            <Array as="points">
              <mxPoint x="-1720" y="-240" />
              <mxPoint x="-1640" y="-240" />
              <mxPoint x="-1640" y="-154" />
            </Array>
          </mxGeometry>
        </mxCell>
        <mxCell id="X8cFLP20oULLbtPgR9av-41" style="edgeStyle=orthogonalEdgeStyle;rounded=0;orthogonalLoop=1;jettySize=auto;html=1;strokeWidth=3;endArrow=none;startFill=0;entryX=0.012;entryY=0.4;entryDx=0;entryDy=0;entryPerimeter=0;" edge="1" parent="1" target="X8cFLP20oULLbtPgR9av-31">
          <mxGeometry relative="1" as="geometry">
            <mxPoint x="-1630" y="-250" as="targetPoint" />
            <mxPoint x="-1720" y="-230" as="sourcePoint" />
            <Array as="points">
              <mxPoint x="-1720" y="-230" />
              <mxPoint x="-1660" y="-230" />
            </Array>
          </mxGeometry>
        </mxCell>
        <mxCell id="X8cFLP20oULLbtPgR9av-42" style="edgeStyle=orthogonalEdgeStyle;rounded=0;orthogonalLoop=1;jettySize=auto;html=1;strokeWidth=3;endArrow=none;startFill=0;entryX=0.009;entryY=0.366;entryDx=0;entryDy=0;entryPerimeter=0;" edge="1" parent="1" target="X8cFLP20oULLbtPgR9av-32">
          <mxGeometry relative="1" as="geometry">
            <mxPoint x="-1629.99" y="-250" as="targetPoint" />
            <mxPoint x="-1720" y="-200" as="sourcePoint" />
            <Array as="points">
              <mxPoint x="-1720" y="-200" />
              <mxPoint x="-1674" y="-200" />
            </Array>
          </mxGeometry>
        </mxCell>
        <mxCell id="X8cFLP20oULLbtPgR9av-43" value="registrar derivación a otro centro de salud" style="ellipse;whiteSpace=wrap;html=1;fontSize=25;" vertex="1" parent="1">
          <mxGeometry x="-1669.62" y="125" width="280" height="90" as="geometry" />
        </mxCell>
        <mxCell id="X8cFLP20oULLbtPgR9av-46" style="edgeStyle=orthogonalEdgeStyle;rounded=0;orthogonalLoop=1;jettySize=auto;html=1;strokeWidth=3;endArrow=none;startFill=0;entryX=0;entryY=0.5;entryDx=0;entryDy=0;" edge="1" parent="1" target="X8cFLP20oULLbtPgR9av-43">
          <mxGeometry relative="1" as="geometry">
            <mxPoint x="-1767" y="310" as="targetPoint" />
            <mxPoint x="-1766.63" y="-170" as="sourcePoint" />
            <Array as="points">
              <mxPoint x="-1770" y="-170" />
              <mxPoint x="-1770" y="170" />
            </Array>
          </mxGeometry>
        </mxCell>
        <mxCell id="X8cFLP20oULLbtPgR9av-64" style="edgeStyle=orthogonalEdgeStyle;rounded=0;orthogonalLoop=1;jettySize=auto;html=1;exitX=1;exitY=0;exitDx=0;exitDy=0;entryX=0;entryY=1;entryDx=0;entryDy=0;endArrow=none;startFill=0;strokeWidth=3;" edge="1" parent="1" source="X8cFLP20oULLbtPgR9av-47" target="X8cFLP20oULLbtPgR9av-61">
          <mxGeometry relative="1" as="geometry">
            <Array as="points">
              <mxPoint x="-1251" y="-515" />
              <mxPoint x="-1251" y="-594" />
            </Array>
          </mxGeometry>
        </mxCell>
        <mxCell id="X8cFLP20oULLbtPgR9av-47" value="verificar que no esté registrado" style="ellipse;whiteSpace=wrap;html=1;fontSize=25;" vertex="1" parent="1">
          <mxGeometry x="-1461" y="-510" width="200" height="97" as="geometry" />
        </mxCell>
        <mxCell id="X8cFLP20oULLbtPgR9av-52" style="edgeStyle=orthogonalEdgeStyle;rounded=0;orthogonalLoop=1;jettySize=auto;html=1;strokeWidth=3;endArrow=none;startFill=0;exitX=1;exitY=0.5;exitDx=0;exitDy=0;entryX=0;entryY=0.5;entryDx=0;entryDy=0;" edge="1" parent="1" source="X8cFLP20oULLbtPgR9av-47" target="X8cFLP20oULLbtPgR9av-53">
          <mxGeometry relative="1" as="geometry">
            <mxPoint x="-1061" y="-475" as="targetPoint" />
            <mxPoint x="-1214" y="-473.23" as="sourcePoint" />
            <Array as="points">
              <mxPoint x="-1261" y="-475" />
              <mxPoint x="-1031" y="-475" />
            </Array>
          </mxGeometry>
        </mxCell>
        <mxCell id="X8cFLP20oULLbtPgR9av-54" value="&lt;font style=&quot;font-size: 23px;&quot;&gt;&amp;lt;&amp;lt;include&amp;gt;&amp;gt;&lt;/font&gt;" style="edgeLabel;html=1;align=center;verticalAlign=middle;resizable=0;points=[];" vertex="1" connectable="0" parent="X8cFLP20oULLbtPgR9av-52">
          <mxGeometry x="-0.2033" y="-2" relative="1" as="geometry">
            <mxPoint as="offset" />
          </mxGeometry>
        </mxCell>
        <mxCell id="X8cFLP20oULLbtPgR9av-53" value="dar de alta" style="ellipse;whiteSpace=wrap;html=1;fontSize=25;" vertex="1" parent="1">
          <mxGeometry x="-1031" y="-490" width="140" height="47" as="geometry" />
        </mxCell>
        <mxCell id="X8cFLP20oULLbtPgR9av-59" value="Condicion: Que no esté registrado" style="rounded=0;whiteSpace=wrap;html=1;" vertex="1" parent="1">
          <mxGeometry x="-1201" y="-405" width="120" height="60" as="geometry" />
        </mxCell>
        <mxCell id="X8cFLP20oULLbtPgR9av-60" value="" style="shape=flexArrow;endArrow=classic;html=1;rounded=0;" edge="1" parent="1">
          <mxGeometry width="50" height="50" relative="1" as="geometry">
            <mxPoint x="-1151" y="-405" as="sourcePoint" />
            <mxPoint x="-1151" y="-455" as="targetPoint" />
          </mxGeometry>
        </mxCell>
        <mxCell id="X8cFLP20oULLbtPgR9av-66" style="edgeStyle=orthogonalEdgeStyle;rounded=0;orthogonalLoop=1;jettySize=auto;html=1;exitX=1;exitY=0.5;exitDx=0;exitDy=0;entryX=0;entryY=0.5;entryDx=0;entryDy=0;strokeWidth=3;endArrow=none;startFill=0;" edge="1" parent="1" source="X8cFLP20oULLbtPgR9av-61" target="X8cFLP20oULLbtPgR9av-65">
          <mxGeometry relative="1" as="geometry" />
        </mxCell>
        <mxCell id="X8cFLP20oULLbtPgR9av-61" value="se registra motivo consulta" style="ellipse;whiteSpace=wrap;html=1;fontSize=25;" vertex="1" parent="1">
          <mxGeometry x="-1240" y="-620" width="150" height="120" as="geometry" />
        </mxCell>
        <mxCell id="X8cFLP20oULLbtPgR9av-65" value="Asignar médico disponible" style="ellipse;whiteSpace=wrap;html=1;fontSize=25;" vertex="1" parent="1">
          <mxGeometry x="-1020" y="-615" width="150" height="110" as="geometry" />
        </mxCell>
        <mxCell id="X8cFLP20oULLbtPgR9av-67" value="" style="whiteSpace=wrap;html=1;fillColor=none;" vertex="1" parent="1">
          <mxGeometry x="-1851" y="-680" width="1010" height="1340" as="geometry" />
        </mxCell>
      </root>
    </mxGraphModel>
  </diagram>
</mxfile>
